<?xml version="1.0" encoding="utf-8"?>
<!-- Generator: Adobe Illustrator 27.0.1, SVG Export Plug-In . SVG Version: 6.00 Build 0)  -->
<svg version="1.1" id="semgreplogo" xmlns="http://www.w3.org/2000/svg" xmlns:xlink="http://www.w3.org/1999/xlink" x="0px"
	 y="0px" viewBox="0 0 1670 252" style="enable-background:new 0 0 1670 252;" xml:space="preserve">
<style type="text/css">
	.st0{fill:#FFFFFF;}
</style>
<g id="semgrep-ellipsis">
	<path class="st0" d="M412,0c55.2,0,100,44.8,100,100s-44.8,100-100,100s-100-44.8-100-100c0-22.8,7.8-44.8,22-62.6
		c5.8,6.7,7.9,10.6,14,20.6h3.5c-3.1-7.6-7.6-15.1-13.8-25C356.7,12,383.7,0,412,0L412,0z M412,44c-30.9,0-56,25.1-56,56
		s25.1,56,56,56s56-25.1,56-56S442.9,44,412,44z"/>
	<path class="st0" d="M256,0c-55.2,0-100,44.8-100,100c0,22.7,7.8,44.8,22,62.5c0-0.1,0.1-0.1,0.1-0.1c0,0,0,0,0,0
		c1-1.2,1.9-2.4,2.8-3.7c4.2-5.5,7.1-10.1,9.9-17.1c0.3-0.6,0.5-1.1,0.8-1.7h3.4c-0.7,3-1.7,5.9-3,8.9c-2.8,6-6.3,12.4-9.8,18.1
		c-0.1,0.1-0.1,0.2-0.2,0.3c18.9,20.8,45.8,32.7,74,32.7c28.2,0,55-11.9,74-32.7c-0.1-0.1-0.1-0.2-0.2-0.3c-3.5-5.7-7-12.1-9.8-18.1
		c-1.3-3-2.3-5.9-3-8.9h3.4c0.2,0.6,0.5,1.1,0.8,1.7c2.8,7,5.7,11.6,9.9,17.1c0.9,1.3,1.8,2.5,2.8,3.7c0,0,0,0,0,0
		c0,0.1,0.1,0.1,0.1,0.1c14.2-17.7,22-39.8,22-62.5C356,44.8,311.2,0,256,0z M256,44c30.9,0,56,25.1,56,56s-25.1,56-56,56
		s-56-25.1-56-56c0-1,0-1.9,0.1-2.9C201.6,67.5,226,44,256,44z"/>
	<path class="st0" d="M100,0C44.8,0,0,44.8,0,100s44.8,100,100,100s100-44.8,100-100c0-22.8-7.8-44.8-22-62.6
		c-5.8,6.7-7.9,10.6-14,20.6h-3.5c3.1-7.6,7.6-15.1,13.8-25C155.3,12,128.3,0,100,0L100,0z M100,44c30.9,0,56,25.1,56,56
		s-25.1,56-56,56s-56-25.1-56-56S69.1,44,100,44z"/>
</g>
<g id="semgrep-letters">
	<path id="s" class="st0" d="M659.6,194.5c-10.3,0-19.8-1.3-28.5-3.9c-8.7-2.8-16.5-6.8-23.5-12c-7-5.4-13.2-12-18.6-19.9l20.6-23.5
		c8.5,12,16.8,20.4,24.8,25.1c8,4.5,17.3,6.8,28,6.8c6.3,0,11.9-1,17-2.9c5.1-1.9,9.1-4.6,12-8.1c3-3.5,4.4-7.4,4.4-11.8
		c0-3.1-0.5-6-1.6-8.6c-1-2.8-2.7-5.2-5-7.3c-2.3-2.1-5.1-4-8.4-5.8c-3.3-1.9-7.1-3.6-11.5-5c-4.4-1.4-9.3-2.5-14.9-3.4
		c-9.4-2.1-17.7-4.7-24.8-7.8c-7-3.1-12.9-7.1-17.8-11.8c-4.7-4.7-8.2-10.1-10.5-16.2c-2.3-6.1-3.4-12.9-3.4-20.4
		c0-7.5,1.7-14.4,5-20.7c3.3-6.4,7.8-12,13.6-16.7c5.7-4.7,12.5-8.3,20.4-10.7c7.8-2.6,16.2-3.9,25.1-3.9c9.9,0,18.8,1.2,26.7,3.7
		c8,2.4,15.1,6.1,21.2,11c6.1,4.7,11.2,10.5,15.4,17.5l-21.2,20.7c-3.7-5.6-7.7-10.2-12-13.9c-4.2-3.8-8.9-6.7-14.1-8.6
		c-5.2-1.9-10.7-2.9-16.5-2.9c-6.4,0-12.1,1-17,3.1c-4.7,1.9-8.4,4.6-11.2,8.1c-2.8,3.5-4.2,7.6-4.2,12.3c0,3.5,0.7,6.7,2.1,9.7
		c1.6,2.8,3.7,5.3,6.5,7.6c3,2.3,6.8,4.3,11.5,6c4.7,1.7,10.2,3.2,16.5,4.4c9.6,2.1,18.1,4.8,25.6,8.1c7.7,3.1,14.1,6.9,19.3,11.2
		c5.4,4.4,9.4,9.3,12,14.9c2.8,5.6,4.2,11.6,4.2,18c0,11.9-2.8,22.1-8.4,30.8c-5.4,8.5-13.2,15.2-23.3,19.9
		C685.2,192.2,673.3,194.5,659.6,194.5L659.6,194.5z"/>
	<path id="e1" class="st0" d="M815.8,194.5c-14.3,0-26.9-3-37.9-8.9c-11-6.1-19.6-14.4-25.9-24.8c-6.1-10.6-9.1-22.7-9.1-36.3
		c0-10.8,1.7-20.7,5.2-29.5s8.3-16.6,14.4-23c6.3-6.6,13.7-11.7,22.2-15.2c8.7-3.7,18.1-5.5,28.2-5.5c9.1,0,17.4,1.7,25.1,5.2
		c7.8,3.3,14.6,8,20.4,14.1c5.7,5.9,10.1,13,13.1,21.2c3.1,8.2,4.6,17.1,4.4,26.7l-0.3,11.5H763.8l-6-21.7h92.5l-3.9,4.4v-6
		c-0.5-5.6-2.4-10.5-5.5-14.6c-3.1-4.4-7.1-7.8-12-10.2c-4.7-2.6-9.9-3.9-15.7-3.9c-9.1,0-16.6,1.7-22.7,5.2
		c-6.1,3.3-10.8,8.3-14.1,14.9c-3.1,6.6-4.7,14.7-4.7,24.3c0,9.2,1.9,17.3,5.7,24c4,6.8,9.6,12.1,16.7,15.9
		c7.1,3.7,15.4,5.5,24.8,5.5c6.6,0,12.7-1,18.3-3.1c5.6-2.3,11.7-6.2,18.3-11.8l14.6,20.7c-4.4,4.2-9.6,7.8-15.7,11
		c-6.1,3.1-12.5,5.6-19.1,7.3C828.7,193.6,822.2,194.5,815.8,194.5L815.8,194.5z"/>
	<path id="m" class="st0" d="M899.3,191.9V54.4h29.5v28.5l-5,2.6c1.6-4.5,3.8-8.8,6.8-12.8c3.1-4,6.9-7.6,11.2-10.7
		c4.4-3.1,9.1-5.6,14.1-7.3c5.1-1.7,10.2-2.6,15.4-2.6c7.7,0,14.4,1.3,20.1,3.9c5.9,2.4,10.8,6.2,14.6,11.2c4,5.1,7,11.5,8.9,19.3
		l-4.7-0.8l1.8-4.4c2.1-4,4.8-7.8,8.1-11.2c3.5-3.7,7.4-6.8,11.8-9.4c4.4-2.8,9-4.9,13.8-6.3c4.9-1.6,9.6-2.4,14.1-2.4
		c10.5,0,19.1,2.1,25.9,6.3c6.8,4.2,11.9,10.5,15.4,19.1c3.5,8.5,5.2,19.1,5.2,31.6v82.9h-29.8v-80.8c0-7.5-1-13.6-2.9-18.3
		c-1.9-4.7-4.8-8.2-8.6-10.5c-3.8-2.4-8.8-3.7-14.9-3.7c-4.5,0-8.9,0.8-13.1,2.4c-4,1.6-7.5,3.7-10.5,6.5c-3,2.8-5.3,6.1-7.1,9.9
		c-1.6,3.7-2.4,7.8-2.4,12.3v82.1h-29.8v-81.3c0-6.8-1-12.5-3.1-17.3c-1.9-4.9-4.8-8.5-8.6-11c-3.8-2.4-8.5-3.7-14.1-3.7
		c-4.5,0-8.8,0.8-12.8,2.4c-4,1.6-7.5,3.7-10.5,6.5c-3,2.6-5.3,5.8-7.1,9.7c-1.6,3.7-2.4,7.7-2.4,12v82.6L899.3,191.9z"/>
	<path id="g" class="st0" d="M1199.1,252c-9.9,0-19.9-1.6-29.8-4.7c-9.9-3.1-18-7.1-24.3-12l11-22.5c3.5,2.6,7.5,4.9,12,6.8
		c4.7,2.1,9.6,3.7,14.6,4.7c5.2,1.2,10.5,1.8,15.7,1.8c9.4,0,17.2-1.6,23.5-4.7c6.3-3,11-7.5,14.1-13.6c3.3-5.9,5-13.3,5-22.2V160
		l3.7,1.6c-0.9,5.6-3.7,10.8-8.6,15.7c-4.7,4.9-10.6,8.9-17.8,12c-7.1,3-14.5,4.4-21.9,4.4c-12.9,0-24.5-3-34.8-9.1
		c-10.1-6.1-18.1-14.5-24-25.1c-5.7-10.6-8.6-22.8-8.6-36.6s2.9-26,8.6-36.6c5.7-10.8,13.7-19.3,23.8-25.4
		c10.1-6.3,21.5-9.4,34.2-9.4c5.2,0,10.3,0.7,15.2,2.1c4.9,1.2,9.4,3,13.6,5.2c4.2,2.3,7.8,4.8,11,7.6c3.3,2.8,6,5.8,8.1,8.9
		c2.1,3.1,3.4,6.1,3.9,8.9l-6,2.1l0.3-31.9h29V183c0,11-1.7,20.7-5,29.3c-3.1,8.5-7.8,15.8-14.1,21.7c-6.1,5.9-13.6,10.4-22.5,13.3
		C1220.2,250.4,1210.3,252,1199.1,252L1199.1,252z M1200.2,167.6c8.2,0,15.4-1.9,21.7-5.8c6.4-3.8,11.4-9.1,14.9-15.7
		c3.5-6.6,5.2-14.4,5.2-23.3c0-8.7-1.8-16.5-5.5-23.3c-3.5-6.8-8.4-12.1-14.6-15.9c-6.3-3.8-13.5-5.8-21.7-5.8c-8,0-15.2,2-21.4,6
		c-6.3,3.8-11.1,9.1-14.6,15.9c-3.5,6.8-5.2,14.5-5.2,23c0,8.7,1.7,16.5,5.2,23.3c3.5,6.6,8.4,11.9,14.6,15.7
		C1185,165.6,1192.1,167.6,1200.2,167.6L1200.2,167.6z"/>
	<path id="r" class="st0" d="M1297.8,191.9V54.4h29.3l0.5,43.4l-3.7-9.9c1.9-6.8,5.2-12.9,9.9-18.3c4.7-5.6,10.1-9.9,16.2-13.1
		c6.1-3.3,12.4-5,18.8-5c3,0,5.8,0.3,8.6,0.8c2.8,0.5,5,1.1,6.5,1.8l-7.8,32.2c-2.1-0.9-4.4-1.6-7.1-2.1c-2.6-0.7-5.2-1-7.8-1
		c-4.5,0-8.9,0.9-13.1,2.6c-4,1.7-7.6,4.2-10.7,7.3c-3,3-5.4,6.5-7.3,10.7c-1.7,4-2.6,8.5-2.6,13.3v74.8L1297.8,191.9z"/>
	<path id="e2" class="st0" d="M1454.2,194.5c-14.3,0-26.9-3-37.9-8.9c-11-6.1-19.6-14.4-25.9-24.8c-6.1-10.6-9.1-22.7-9.1-36.3
		c0-10.8,1.7-20.7,5.2-29.5s8.3-16.6,14.4-23c6.3-6.6,13.7-11.7,22.2-15.2c8.7-3.7,18.1-5.5,28.2-5.5c9.1,0,17.4,1.7,25.1,5.2
		c7.8,3.3,14.6,8,20.4,14.1c5.7,5.9,10.1,13,13.1,21.2c3.1,8.2,4.6,17.1,4.4,26.7l-0.3,11.5h-111.8l-6-21.7h92.5l-3.9,4.4v-6
		c-0.5-5.6-2.4-10.5-5.5-14.6c-3.1-4.4-7.1-7.8-12-10.2c-4.7-2.6-9.9-3.9-15.7-3.9c-9.1,0-16.6,1.7-22.7,5.2
		c-6.1,3.3-10.8,8.3-14.1,14.9c-3.1,6.6-4.7,14.7-4.7,24.3c0,9.2,1.9,17.3,5.7,24c4,6.8,9.6,12.1,16.7,15.9
		c7.1,3.7,15.4,5.5,24.8,5.5c6.6,0,12.7-1,18.3-3.1c5.6-2.3,11.7-6.2,18.3-11.8l14.6,20.7c-4.4,4.2-9.6,7.8-15.7,11
		c-6.1,3.1-12.5,5.6-19.1,7.3C1467.2,193.6,1460.7,194.5,1454.2,194.5L1454.2,194.5z"/>
	<path id="p" class="st0" d="M1532.8,249.4v-195h29.3l0.3,31.4l-4.7-2.4c1-5.4,4-10.5,8.9-15.2c4.9-4.9,10.8-8.8,17.8-11.8
		c7.1-3,14.5-4.4,22.2-4.4c12.2,0,23,3,32.4,9.1c9.6,6.1,17.2,14.5,22.7,25.1c5.6,10.6,8.4,22.8,8.4,36.6c0,13.8-2.8,26.1-8.4,36.9
		c-5.4,10.6-12.9,19.1-22.5,25.4c-9.4,6.1-20.1,9.1-32.1,9.1c-8,0-15.8-1.6-23.3-4.7c-7.3-3.1-13.6-7.2-18.8-12.3
		c-5.2-5.1-8.4-10.4-9.7-15.9l7.3-3.7v91.8L1532.8,249.4z M1601.5,167.6c7.7,0,14.5-1.9,20.4-5.8c6.1-3.8,10.9-9.1,14.4-15.7
		c3.5-6.8,5.2-14.6,5.2-23.3c0-8.5-1.7-16.1-5.2-22.7c-3.3-6.6-8-11.9-14.1-15.7c-5.9-3.8-12.8-5.8-20.6-5.8
		c-7.8,0-14.8,1.9-20.9,5.8c-5.9,3.7-10.6,8.9-14.1,15.7c-3.5,6.6-5.2,14.2-5.2,22.7c0,8.7,1.7,16.5,5.2,23.3
		c3.5,6.6,8.2,11.9,14.1,15.7C1586.7,165.6,1593.7,167.6,1601.5,167.6z"/>
</g>
</svg>
